<svg aria-hidden="true" style="position: absolute; width: 0; height: 0; overflow: hidden;" version="1.1" xmlns="http://www.w3.org/2000/svg" xmlns:xlink="http://www.w3.org/1999/xlink">
    <defs>
        <symbol id="icon-bed" viewBox="0 0 52 32">
            <title>Bed Icon</title>
            <path fill="#666" style="fill: var(--color1, #666)" d="M9.6 0c-0.707 0-1.28 0.573-1.28 1.28v10.24h1.28c-3.535 0-6.4 2.865-6.4 6.4v1.92h-3.2v8.32h3.2v3.84h3.2v-3.84h40.32v3.84h3.2v-3.84h2.56v-8.32h-2.56v-1.92c0-3.535-2.865-6.4-6.4-6.4h1.28v-10.24c0-0.707-0.573-1.28-1.28-1.28zM12.8 5.12h9.6c0.707 0 1.28 0.573 1.28 1.28v5.12h-12.16v-5.12c0-0.707 0.573-1.28 1.28-1.28zM31.36 5.12h9.6c0.707 0 1.28 0.573 1.28 1.28v5.12h-12.16v-5.12c0-0.707 0.573-1.28 1.28-1.28zM0.709 26.305h51.056c0.017 0 0.031 0.014 0.031 0.031v0.344c0 0.017-0.014 0.031-0.031 0.031h-51.056c-0.017 0-0.031-0.014-0.031-0.031v-0.344c0-0.017 0.014-0.031 0.031-0.031z"></path>
        </symbol>
        <symbol id="icon-clock" viewBox="0 0 63 32">
            <title>Clock Icon</title>
            <path d="M33.534 0c-8.837 0-16 7.163-16 16v0c0 8.837 7.163 16 16 16v0c8.837 0 16-7.163 16-16v0c0-8.837-7.163-16-16-16v0zM32.877 0.877h1.315v13.738c0.522 0.252 0.877 0.777 0.877 1.386v0c0 0 0 0 0 0 0 0.847-0.687 1.534-1.534 1.534-0 0-0 0-0 0h0c-0.847-0-1.534-0.687-1.534-1.534 0-0 0-0 0-0v0c0.001-0.11 0.014-0.217 0.037-0.319l-0.002 0.010-7.049-5.917 0.845-1.007 6.998 5.874c0.008-0.005 0.023-0.013 0.039-0.022l0.008-0.004zM6.576 9.205v3.507h0.876v-3.507zM2.373 10.959l-0.62 0.62 2.48 2.48 0.62-0.62zM12.124 10.959l-2.48 2.48 0.62 0.62 2.48-2.48zM57.27 11.080c-4.996 2.786-1.826 12.364 5.67 8.97-1.37 0.039-3.965-1.81-5.051-3.128-1.261-1.794-1.495-4.109-0.619-5.842zM7.014 13.589c-0 0-0 0-0 0-1.452 0-2.63 1.177-2.63 2.63v0c0 0 0 0 0 0 0 1.453 1.178 2.63 2.63 2.63 0 0 0 0 0 0v0c0 0 0 0 0 0 1.453 0 2.63-1.178 2.63-2.63 0-0 0-0 0-0v0c-0-1.452-1.178-2.63-2.63-2.63-0 0-0 0-0 0v0zM0 15.781v0.877h3.507v-0.877zM10.52 15.781v0.877h3.507v-0.877zM4.233 18.411l-2.48 2.48 0.62 0.62 2.48-2.48zM9.826 18.411l-0.62 0.62 2.48 2.48 0.62-0.62zM6.576 19.726v3.507h0.876v-3.507z"></path>
        </symbol>
        <symbol id="icon-home" viewBox="0 0 33 32">
            <title>Home Icon</title>
            <path d="M16.913 0c-0.466-0.004-0.932 0.065-1.382 0.204l-12.305 3.789c-1.918 0.591-3.225 2.361-3.225 4.368v18.845c0 2.525 2.047 4.571 4.571 4.571h23.771c2.525 0 4.571-2.047 4.571-4.571v-18.9c0-1.979-1.273-3.734-3.155-4.346l-11.468-3.734c-0.448-0.146-0.913-0.221-1.379-0.225zM11.886 19.891h9.143c1.515 0 2.743 1.228 2.743 2.743l0.271 7.245-14.9-0.136v-7.109c0-1.515 1.228-2.743 2.743-2.743z"></path>
        </symbol>
        <symbol id="icon-learn" viewBox="0 0 32 32">
            <title>Learn-Arrow Icon</title>
            <path d="M16 0c-8.837 0-16 7.163-16 16v0c0 8.837 7.163 16 16 16v0c8.837 0 16-7.163 16-16v0c0-8.837-7.163-16-16-16v0zM23.674 12.752c0.102-0.001 0.205 0.038 0.284 0.115l2.563 2.528c0.157 0.155 0.159 0.408 0.004 0.566l-2.528 2.563c-0.155 0.157-0.408 0.159-0.566 0.004s-0.159-0.409-0.004-0.566l1.85-1.875-22.234 0.153-0.005-0.8 22.234-0.153-1.876-1.85c-0.157-0.155-0.159-0.408-0.004-0.566 0.078-0.079 0.179-0.119 0.282-0.119z"></path>
        </symbol>
        <symbol id="icon-moon" viewBox="0 0 29 32">
            <title>Moon Icon</title>
            <path d="M9.651 0.52c-17.459 10.351-7.112 40.563 19.031 27.582-4.739 0.489-13.596-4.82-17.266-8.807-4.243-5.482-4.907-12.926-1.765-18.775z"></path>
        </symbol>
        <symbol id="icon-phone" viewBox="0 0 21 32">
            <title>Phone Icon</title>
            <path d="M2.286 0c-1.266 0-2.286 1.019-2.286 2.286v27.429c0 1.266 1.019 2.286 2.286 2.286h16.286c1.266 0 2.286-1.019 2.286-2.286v-27.429c0-1.266-1.019-2.286-2.286-2.286zM4 2.286h12.857c0.95 0 1.714 0.765 1.714 1.714v20.571c0 0.95-0.765 1.714-1.714 1.714h-12.857c-0.95 0-1.714-0.765-1.714-1.714v-20.571c0-0.95 0.765-1.714 1.714-1.714zM8.884 6.858c-6.419 3.834-1.904 16.225 7.757 11.499-1.788 0.104-5.25-2.21-6.72-3.891-1.716-2.295-2.114-5.31-1.037-7.609zM10.429 26.857c1.183 0 2.143 0.959 2.143 2.143v0c0 1.183-0.959 2.143-2.143 2.143v0c-1.183 0-2.143-0.959-2.143-2.143v0c0-1.183 0.959-2.143 2.143-2.143v0z"></path>
        </symbol>
        <symbol id="icon-soda" viewBox="0 0 19 32">
            <title>Soda can Icon</title>
            <path fill="#4d4d4d" style="fill: var(--color2, #4d4d4d)" d="M9.69 0c-5.143 0.004-9.344 1.592-9.652 3.595l-0.001 0.011h-0.037v24.338h0.037c-0.016 0.062-0.029 0.14-0.036 0.219l-0.001 0.007c0 2.116 4.338 3.831 9.69 3.831v0c5.352 0 9.69-1.715 9.69-3.831v0c-0.001-0.080-0.007-0.159-0.020-0.237l0.001 0.011h0.018v-24.338h-0.018c-0.31-2.016-4.521-3.605-9.672-3.606h-0zM5.152 1.932c0 0 0 0 0.001 0 0.748 0 1.355 0.239 1.356 0.533v0c0 0 0 0 0 0 0 0.295-0.607 0.534-1.356 0.534-0 0-0 0-0.001 0h0c-0.749-0-1.356-0.239-1.356-0.534 0-0 0-0 0-0v0c0.001-0.295 0.607-0.533 1.356-0.533v0z"></path>
        </symbol>
        <symbol id="icon-sun" viewBox="0 0 31 32">
            <title>Sun Icon</title>
            <path d="M14.784 0.728v7.88h1.839v-7.88zM25.336 3.807l-4.969 6.116 1.427 1.159 4.969-6.116zM5.529 4.354l-1.318 1.282 5.494 5.649 1.318-1.282zM15.68 9.276c-3.751 0-6.792 2.946-6.792 6.58v0c0 0 0 0 0 0 0 3.634 3.041 6.58 6.792 6.58v0c0 0 0 0 0 0 3.751 0 6.792-2.946 6.792-6.58 0-0 0-0 0-0v0c0-3.634-3.041-6.58-6.792-6.58 0 0-0 0-0 0v0zM0 15.118v1.839h7.88v-1.839zM23.34 15.418v1.839h7.88v-1.839zM9.353 20.856l-5.47 5.672 1.324 1.276 5.47-5.673zM21.777 21.315l-1.318 1.282 5.494 5.649 1.318-1.282zM14.765 23.392v7.88h1.839v-7.88z"></path>
        </symbol>
        <symbol id="icon-wine" viewBox="0 0 19 32">
            <title>Wine Icon</title>
            <path fill="#666" style="fill: var(--color1, #666)" d="M9.69 0c-4.124 0.003-7.644 1.024-9.036 2.461l-0.022 0.026c-0.093 0.066-0.174 0.165-0.247 0.288-0.241 0.316-0.381 0.679-0.385 1.055v0.001c0.008 0.102 0.024 0.198 0.049 0.292l-0.004-0.017c-0.029 0.314-0.046 0.672-0.046 1.088 0 6.965 4.19 12.629 9.414 12.824v9.926c-3.96 0.008-7.159 0.913-7.16 2.027v0c0 1.12 3.229 2.028 7.211 2.028v0c3.983 0 7.211-0.908 7.211-2.028v0c-0.001-1.086-3.039-1.973-6.856-2.025l-0.017-0v-9.922c5.299-0.081 9.577-5.793 9.577-12.83 0-0.416-0.017-0.774-0.046-1.088 0.022-0.078 0.038-0.173 0.045-0.27l0-0.006c-0.001-0.393-0.151-0.773-0.43-1.13l0.018 0.027c-0.051-0.078-0.105-0.145-0.165-0.197-1.387-1.488-4.942-2.531-9.113-2.531h-0zM9.673 0.671c4.547 0 8.232 1.009 8.232 2.253 0 0 0 0 0 0v-0c0 0 0 0 0 0 0 1.244-3.686 2.253-8.232 2.253v0c-0 0-0 0-0.001 0-4.547 0-8.233-1.009-8.233-2.253 0-0 0-0 0-0v0c0-0 0-0 0-0 0-1.244 3.686-2.253 8.233-2.253 0 0 0.001 0 0.001 0h-0z"></path>
        </symbol>
    </defs>
</svg>
