<svg width="120" height="120" viewBox="0 0 120 120" fill="none" xmlns="http://www.w3.org/2000/svg">
  <path
     id="learn"
     d="M 60,0 A 60,60 0 0 0 0,60 60,60 0 0 0 60,120 60,60 0 0 0 120,60 60,60 0 0 0 60,0 Z m 28.777344,47.820312 c 0.383874,-0.0026 0.769553,0.140791 1.064453,0.431641 l 9.611328,9.480469 c 0.589695,0.581699 0.597625,1.531294 0.01563,2.121094 l -9.480469,9.611328 c -0.581699,0.589799 -1.531294,0.597424 -2.121093,0.01563 -0.5898,-0.5817 -0.597325,-1.533248 -0.01563,-2.123047 l 6.9375,-7.03125 -83.378906,0.574219 -0.01953,-3 83.378906,-0.574219 -7.035156,-6.9375 c -0.589899,-0.5817 -0.595371,-1.531294 -0.01367,-2.121094 0.2909,-0.2949 0.672766,-0.444628 1.056641,-0.447266 z"
     fill="#262626" />
</svg>
