<svg version="1.1" id="Capa_1" width="120" height="120" viewBox="0 0 136.82895 136.82895" xmlns="http://www.w3.org/2000/svg" xmlns:svg="http://www.w3.org/2000/svg">
<path
   id="path234"
   style="fill:#262626;stroke-width:0"
   d="M 68.41464,0 A 68.414487,68.414444 0 0 0 -1.0253906e-6,68.414645 68.414487,68.414444 0 0 0 68.41464,136.82895 68.414487,68.414444 0 0 0 136.82895,68.414645 68.414487,68.414444 0 0 0 68.41464,0 Z m -0.275721,22.073521 c 4.914429,0 9.746103,0.845017 14.360406,2.511669 4.461542,1.611469 8.639473,3.959834 12.417403,6.979661 3.733383,2.984245 6.988742,6.553485 9.676142,10.608932 0.76796,1.158703 1.48248,2.350806 2.14597,3.570871 v -9.796825 c 0,-3.382647 2.58519,-6.124695 5.77386,-6.124695 3.18889,0 5.77386,2.742048 5.77386,6.124695 V 59.15036 c 0,3.382652 -2.58497,6.125047 -5.77386,6.125047 H 90.934057 c -3.188674,0 -5.773859,-2.742395 -5.773859,-6.125047 0,-3.382651 2.585185,-6.124699 5.773859,-6.124699 h 6.396724 c -2.265305,-4.542165 -5.472784,-8.567687 -9.363215,-11.677464 -5.749485,-4.5956 -12.606244,-7.024934 -19.828647,-7.024934 -3.806741,0 -7.535007,0.680357 -11.08165,2.021983 -3.428094,1.296714 -6.616319,3.181997 -9.475832,5.602878 -5.723523,4.845724 -9.812489,11.644914 -11.513828,19.145428 -0.63677,2.807152 -3.00176,4.693311 -5.60877,4.693311 -0.44716,0 -0.90169,-0.05556 -1.35567,-0.171407 -3.10036,-0.791329 -5.00869,-4.099054 -4.26272,-7.387793 1.16103,-5.118131 3.11283,-9.96559 5.8011,-14.407191 2.6389,-4.35994 5.9148,-8.210966 9.736603,-11.446619 3.859966,-3.267972 8.166875,-5.813937 12.800751,-7.5668 4.794775,-1.813883 9.828167,-2.733532 14.960016,-2.733532 z m 37.851151,50.772143 c 0.38343,0.01394 0.77147,0.06869 1.15903,0.167603 3.10046,0.791329 5.00901,4.09917 4.26304,7.387793 -1.16103,5.118132 -3.11293,9.965246 -5.8011,14.406848 -2.639,4.359821 -5.915013,8.211422 -9.736933,11.446962 -3.859966,3.26786 -8.166542,5.81359 -12.800419,7.56646 -4.781357,1.80874 -9.799933,2.72793 -14.916501,2.73318 -0.0063,0 -0.01213,3e-4 -0.01827,3e-4 -0.0045,0 -0.0091,-3e-4 -0.01363,-3e-4 -0.0039,0 -0.0081,3e-4 -0.01197,3e-4 -0.0047,0 -0.0094,-3e-4 -0.01429,-3e-4 -8.773838,-0.008 -17.260922,-2.72031 -24.546452,-7.84603 -5.810411,-4.08776 -10.599316,-9.51462 -14.038846,-15.865534 v 9.837604 c 0,3.38276 -2.58508,6.1247 -5.77386,6.1247 -3.18878,0 -5.77386,-2.74194 -5.77386,-6.1247 V 79.478363 c 0,-3.382767 2.58508,-6.125046 5.77386,-6.125046 h 21.578647 c 3.188782,0 5.773859,2.742279 5.773859,6.125046 0,3.382536 -2.584965,6.1247 -5.773859,6.1247 h -6.381774 c 2.578408,5.196062 6.346582,9.623911 10.998603,12.896668 5.394589,3.795399 11.684362,5.802699 18.189937,5.805379 3.802451,-0.001 7.526897,-0.68175 11.070022,-2.02198 3.428202,-1.29648 6.616099,-3.181769 9.475495,-5.602526 5.723531,-4.845613 9.812717,-11.644802 11.514171,-19.145432 0.65273,-2.877645 3.12106,-4.787178 5.80509,-4.689508 z"
/></svg>