<svg aria-hidden="true" style="position: absolute; width: 0; height: 0; overflow: hidden;" version="1.1" xmlns="http://www.w3.org/2000/svg" xmlns:xlink="http://www.w3.org/1999/xlink">
    <defs>
        <symbol id="icon-Gameboy" viewBox="0 0 22 32">
            <path d="M9.23 23.237c-0.195-0-0.391 0.051-0.568 0.158l-1.878 1.142c-0.515 0.313-0.681 0.994-0.368 1.509s0.994 0.681 1.509 0.368l1.878-1.142c0.515-0.313 0.681-0.994 0.368-1.509-0.206-0.338-0.57-0.526-0.941-0.526zM9.099 23.72c0.246-0.012 0.49 0.102 0.628 0.318 0.2 0.313 0.096 0.719-0.233 0.91l-1.708 0.989c-0.329 0.19-0.755 0.092-0.955-0.222s-0.096-0.719 0.233-0.909l1.708-0.989c0.103-0.060 0.215-0.091 0.327-0.096zM13.319 23.433c-0.195-0-0.391 0.051-0.568 0.158l-1.878 1.142c-0.515 0.313-0.681 0.994-0.368 1.509s0.994 0.681 1.509 0.368l1.878-1.142c0.515-0.313 0.681-0.994 0.368-1.509-0.206-0.338-0.57-0.526-0.941-0.526zM13.188 23.916c0.246-0.012 0.49 0.102 0.628 0.318 0.2 0.313 0.096 0.719-0.233 0.91l-1.708 0.989c-0.329 0.19-0.755 0.092-0.955-0.222s-0.096-0.719 0.233-0.909l1.708-0.989c0.103-0.060 0.215-0.091 0.327-0.096zM17.525 13.601c-1.078 0-1.958 0.881-1.958 1.958s0.881 1.958 1.958 1.958c1.078 0 1.958-0.881 1.958-1.958s-0.881-1.958-1.958-1.958zM17.525 14.27c0.716 0 1.29 0.573 1.29 1.29s-0.573 1.29-1.29 1.29c-0.004 0-0.007-0-0.011-0 0.003-0 0 0-0.002 0l-0.005 0c-0.009-0.001-0.014-0.001-0.018-0.001l0.005 0c-0.058-0.001-0.115-0.006-0.171-0.015-0.043-0.007-0.078-0.014-0.112-0.022l0.009 0.002c-0.022-0.005-0.044-0.011-0.065-0.017-0.542-0.158-0.932-0.649-0.934-1.232v-0c0.002-0.417 0.202-0.787 0.511-1.021l0.003-0.002c0.033-0.026 0.067-0.050 0.103-0.072 0.010-0.007 0.025-0.016 0.041-0.025l0.006-0.003c0.189-0.108 0.407-0.169 0.641-0.169zM13.612 16.716c-1.078 0-1.958 0.881-1.958 1.958s0.881 1.958 1.958 1.958c1.078 0 1.958-0.881 1.958-1.958s-0.881-1.958-1.958-1.958zM13.612 17.385c0.716 0 1.29 0.573 1.29 1.29s-0.573 1.29-1.29 1.29c-0.004 0-0.007-0-0.011-0 0.003-0 0 0-0.002 0l-0.005 0c-0.009-0.001-0.014-0.001-0.018-0.001l0.005 0c-0.058-0.001-0.115-0.006-0.171-0.015-0.043-0.007-0.078-0.014-0.112-0.022l0.009 0.002c-0.022-0.005-0.044-0.011-0.065-0.017-0.542-0.158-0.932-0.649-0.934-1.232v-0c0.002-0.417 0.202-0.787 0.511-1.021l0.003-0.002c0.033-0.026 0.067-0.049 0.103-0.072 0.010-0.007 0.025-0.016 0.041-0.025l0.006-0.003c0.189-0.108 0.407-0.169 0.641-0.169zM4.979 13.612c-0.286 0-0.527 0.236-0.527 0.525v1.209h-1.3c-0.286 0-0.525 0.239-0.525 0.525v1.548c0 0.286 0.239 0.525 0.525 0.525h1.3v1.254c0 0.286 0.239 0.525 0.525 0.525h1.915c0.286 0 0.525-0.239 0.525-0.525v-1.254h1.179c0.286 0 0.525-0.239 0.525-0.525v-1.548c0-0.286-0.239-0.525-0.525-0.525h-1.179v-1.209c0-0.287-0.24-0.525-0.526-0.525zM5.101 14.265h1.693c0.093 0 0.17 0.076 0.17 0.17v1.203c0 0.094 0.076 0.17 0.169 0.17h1.17c0.093 0 0.169 0.076 0.169 0.17v1.377c0 0.094-0.076 0.17-0.169 0.17h-1.17c-0.093 0-0.169 0.076-0.169 0.17v1.243c0 0.094-0.076 0.17-0.169 0.17h-1.695c-0.093 0-0.169-0.076-0.169-0.17v-1.243c0-0.094-0.076-0.17-0.169-0.17h-1.277c-0.093 0-0.169-0.076-0.169-0.17v-0.078h-0.019v-1.262h0.019v-0.037c0-0.094 0.076-0.17 0.169-0.17h1.277c0.093 0 0.169-0.076 0.169-0.17v-1.203c0-0.094 0.077-0.17 0.17-0.17zM4.49 3.057c-0.523 0-0.955 0.432-0.955 0.955v6.018c0 0.523 0.432 0.955 0.955 0.955h13.182c0.523 0 0.955-0.432 0.955-0.955v-6.018c0-0.523-0.432-0.955-0.955-0.955zM4.49 3.725h13.182c0.165 0 0.287 0.122 0.287 0.287v6.018c0 0.165-0.122 0.287-0.287 0.287h-0.3c-0.044 0.011-0.090 0.018-0.138 0.018h-12.333c-0.048 0-0.093-0.007-0.138-0.018h-0.274c-0.165 0-0.287-0.122-0.287-0.287v-6.018c0-0.165 0.122-0.287 0.287-0.287zM1.91 0c-1.053 0-1.91 0.858-1.91 1.91v28.179c0 1.053 0.858 1.91 1.91 1.91h18.436c1.053 0 1.91-0.858 1.91-1.91v-28.179c0-1.053-0.858-1.91-1.91-1.91zM1.91 0.669h18.436c0.697 0.021 1.221 0.732 1.242 1.242v28.179c-0.102 0.745-0.544 1.231-1.242 1.242h-18.436c-0.829-0.239-1.237-0.496-1.242-1.242v-28.179c-0.080-0.68 0.665-1.218 1.242-1.242z"></path>
        </symbol>
        <symbol id="icon-Shapes" viewBox="0 0 170 32">
            <path d="M46.891 0c-1.745 0-3.2 1.455-3.2 3.2v25.6c0 1.745 1.455 3.2 3.2 3.2h25.6c1.745 0 3.2-1.455 3.2-3.2v-25.6c0-1.745-1.455-3.2-3.2-3.2zM47.666 2.644h24.299c0.111 0 0.219 0.011 0.324 0.033s0.204 0.053 0.3 0.094c0.096 0.040 0.187 0.089 0.272 0.146s0.164 0.123 0.236 0.195c0.072 0.072 0.138 0.152 0.195 0.237s0.107 0.175 0.147 0.271c0.040 0.096 0.071 0.197 0.093 0.301s0.033 0.212 0.033 0.323v23.594c0 0.111-0.011 0.218-0.033 0.323s-0.052 0.205-0.093 0.301-0.090 0.186-0.147 0.271c-0.057 0.085-0.123 0.165-0.195 0.238s-0.151 0.138-0.236 0.195c-0.085 0.057-0.177 0.107-0.272 0.148s-0.196 0.071-0.3 0.093c-0.104 0.021-0.213 0.032-0.324 0.032h-24.299c-0.111 0-0.218-0.011-0.322-0.032s-0.205-0.052-0.301-0.093c-0.096-0.040-0.186-0.090-0.271-0.148s-0.164-0.123-0.236-0.195c-0.072-0.072-0.139-0.152-0.196-0.238s-0.106-0.175-0.146-0.271c-0.040-0.096-0.072-0.197-0.094-0.301s-0.032-0.212-0.032-0.323v-23.594c0-0.111 0.011-0.218 0.032-0.322s0.053-0.205 0.094-0.301c0.040-0.096 0.089-0.186 0.146-0.271s0.124-0.165 0.196-0.237c0.072-0.072 0.151-0.138 0.236-0.195s0.175-0.106 0.271-0.146c0.096-0.040 0.197-0.072 0.301-0.094s0.212-0.033 0.322-0.033zM152.171 0l-18.014 31.2h36.028zM152.031 4.287l15.134 25.177-29.795 0.267 7.33-12.723zM107.691 0c-8.818 0-16 7.182-16 16s7.182 16 16 16c8.818 0 16-7.182 16-16s-7.182-16-16-16zM107.761 2.996c0 0 0.001 0 0.001 0 7.496 0 13.573 5.958 13.573 13.308 0 0 0 0 0 0v-0c0 0 0 0 0 0 0 7.35-6.077 13.308-13.573 13.308-0 0-0.001 0-0.001 0h0c-7.496-0-13.573-5.959-13.573-13.308 0-0 0-0 0-0v0c0-0 0-0 0-0 0-7.35 6.077-13.308 13.572-13.308h0zM0.469 1.92c-0.289 0.29-0.469 0.689-0.469 1.131s0.179 0.842 0.469 1.131l26.24 26.24c0.29 0.289 0.689 0.468 1.131 0.468s0.842-0.179 1.131-0.468v0c0.289-0.29 0.468-0.689 0.468-1.131s-0.179-0.842-0.468-1.131l-26.24-26.24c-0.29-0.289-0.689-0.469-1.131-0.469s-0.842 0.179-1.131 0.469v0zM27.84 1.109c-0.442 0-0.842 0.179-1.131 0.469l-26.24 26.24c-0.289 0.29-0.469 0.689-0.469 1.131s0.179 0.842 0.469 1.131v0c0.29 0.289 0.689 0.468 1.131 0.468s0.842-0.179 1.131-0.468l26.24-26.24c0.289-0.29 0.468-0.689 0.468-1.131s-0.179-0.842-0.468-1.131v0c-0.29-0.29-0.689-0.469-1.131-0.469v0z"></path>
        </symbol>
        <symbol id="icon-Joystick" viewBox="0 0 26 32">
            <path d="M11.985 9.761v7.784l1.236 0.371 1.359-0.371v-7.784zM12.479 10.255h1.606c0.237 1.614 0.134 3.992 0.134 5.969l-0.134 0.036v0.907l-0.858 0.234-0.748-0.224v-0.919l-0.113-0.034c-0.151-1.873 0.129-4.293 0.113-5.969zM13.282 0c-2.895 0-5.251 2.356-5.251 5.251s2.356 5.251 5.251 5.251c2.895 0 5.251-2.356 5.251-5.251s-2.356-5.251-5.251-5.251zM13.282 0.865c2.428 0 4.386 1.959 4.386 4.386s-1.959 4.386-4.386 4.386c-2.428 0-4.386-1.959-4.386-4.386s1.959-4.386 4.386-4.386zM13.282 16.062c-0.943 0-1.781 0.17-2.402 0.452-0.656 0.298-0.995 0.658-0.995 1.092s0.339 0.794 0.995 1.092c0.622 0.283 1.459 0.452 2.402 0.452s1.781-0.17 2.402-0.452c0.656-0.298 0.995-0.658 0.995-1.092s-0.339-0.794-0.995-1.092c-0.622-0.283-1.459-0.452-2.402-0.452zM13.357 16.544c0.735 0 1.385 0.136 1.84 0.343 0.745 0.414 0.901 0.775 0.244 1.105-0.070 0.043-0.151 0.087-0.244 0.129-0.455 0.207-1.106 0.343-1.84 0.343-0.586 0-1.117-0.087-1.539-0.227-0.24-0.060-0.453-0.133-0.631-0.214-1.013-0.362-0.188-0.887 0.33-1.136 0.455-0.207 1.106-0.343 1.84-0.343zM13.247 14.394l-13.187 3.185 12.836 4.219 13.373-4.248zM13.246 14.903l11.189 2.713-11.536 3.664-11.035-3.627zM0 17.544v9.822l12.911 4.633 13.344-5.375v-9.081l-13.344 4.077zM25.39 18.713v7.328c0.003 0.017-0.288 0.378-0.288 0.378l-12.129 4.645-0.029-0.010-0.049 0.020-2.086-0.749-9.542-3.256c0 0-0.403-0.252-0.401-0.312v-8.034l12.042 3.803 0.257-0.079z"></path>
        </symbol>
        <symbol id="icon-playstation-logo" viewBox="0 0 32 32">
            <path d="M3.262 24.248c-2.374-0.681-2.767-2.084-1.69-2.899 0.776-0.51 1.668-0.954 2.612-1.288l0.087-0.027 7.017-2.516v2.89l-5.030 1.839c-0.881 0.339-1.031 0.79-0.299 1.032 0.365 0.093 0.783 0.147 1.214 0.147 0.615 0 1.204-0.109 1.749-0.308l-0.035 0.011 2.422-0.882v2.592c-0.15 0.037-0.32 0.055-0.487 0.091-0.775 0.136-1.667 0.214-2.577 0.214-1.778 0-3.486-0.298-5.078-0.846l0.11 0.033zM18.049 24.544l7.868-2.843c0.893-0.322 1.032-0.781 0.307-1.022-0.363-0.089-0.779-0.14-1.208-0.14-0.622 0-1.22 0.108-1.774 0.305l0.037-0.011-5.255 1.874v-2.983l0.3-0.106c1.050-0.349 2.284-0.62 3.557-0.761l0.083-0.008c0.468-0.050 1.010-0.078 1.559-0.078 1.877 0 3.677 0.331 5.343 0.939l-0.108-0.035c2.309 0.751 2.549 1.839 1.969 2.589-0.559 0.557-1.235 0.998-1.988 1.282l-0.039 0.013-10.677 3.883v-2.869zM12.231 4.248v21.927l4.892 1.576v-18.39c0-0.862 0.38-1.438 0.992-1.238 0.795 0.225 0.95 1.017 0.95 1.881v7.342c3.050 1.491 5.451-0.003 5.451-3.939 0-4.045-1.407-5.842-5.546-7.282-1.785-0.648-4.040-1.294-6.347-1.805l-0.389-0.072z"></path>
        </symbol>
    </defs>
</svg>
