<svg width="82" height="50" viewBox="0 0 82 50" fill="none" xmlns="http://www.w3.org/2000/svg">
  <path
     id="bed"
     fill="#666666"
     d="m 15,0 c -1.104596,0 -2,0.8954344 -2,2 v 16 h 2 C 9.477172,18 5,22.477224 5,28 v 3 H 0 v 13 h 5 v 6 h 5 v -6 h 63 v 6 h 5 v -6 h 4 V 31 H 78 V 28 C 78,22.477224 73.522776,18 68,18 h 2 V 2 C 70,0.8954354 69.104596,0 68,0 Z m 5,8 h 15 c 1.104597,0 2,0.8954333 2,2 v 8 H 18 v -8 c 0,-1.1045667 0.895403,-2 2,-2 z m 29,0 h 15 c 1.104597,0 2,0.8954333 2,2 v 8 H 47 V 10 C 47,8.8954333 47.895403,8 49,8 Z M 1.1074219,41.101562 H 80.882812 c 0.02717,0 0.04883,0.02165 0.04883,0.04883 V 41.6875 c 0,0.02717 -0.02165,0.04883 -0.04883,0.04883 H 1.1074219 c -0.027174,0 -0.048828,-0.02165 -0.048828,-0.04883 v -0.537109 c 0,-0.02717 0.021654,-0.04883 0.048828,-0.04883 z" />
</svg>
