<svg width="206.52148" height="105" viewBox="0 0 206.52148 105" fill="none" xmlns="http://www.w3.org/2000/svg">
  <path
     id="clock"
     fill="black"
     d="M 110.0332,0 A 52.5,52.5 0 0 0 57.533203,52.5 52.5,52.5 0 0 0 110.0332,105 a 52.5,52.5 0 0 0 52.5,-52.5 52.5,52.5 0 0 0 -52.5,-52.5 z m -2.15625,2.8769531 h 4.31446 V 47.953125 A 5.0342498,5.0342498 0 0 1 115.06836,52.5 5.0342498,5.0342498 0 0 1 110.0332,57.535156 5.0342498,5.0342498 0 0 1 105,52.5 5.0342498,5.0342498 0 0 1 105.11523,51.486328 L 81.986328,32.072266 84.759766,28.767578 107.7207,48.041016 a 5.0342498,5.0342498 0 0 1 0.15625,-0.08398 z M 21.576172,30.205078 v 11.507813 h 2.875 V 30.205078 Z m -13.7890626,5.753906 -2.0332032,2.033204 8.1367188,8.136718 2.033203,-2.033203 z m 31.9941406,0 -8.136719,8.136719 2.033203,2.033203 8.136719,-8.136718 z m 148.13672,0.398438 c -16.39198,9.140591 -5.99046,40.568082 18.60351,29.433594 -4.49399,0.128399 -13.00926,-5.938177 -16.57226,-10.263672 -4.136,-5.885894 -4.90525,-13.483628 -2.03125,-19.169922 z M 23.013672,44.589844 a 8.6301403,8.6301403 0 0 0 -8.63086,8.628906 8.6301403,8.6301403 0 0 0 8.63086,8.630859 8.6301403,8.6301403 0 0 0 8.630859,-8.630859 8.6301403,8.6301403 0 0 0 -8.630859,-8.628906 z M 0,51.78125 v 2.876953 H 11.505859 V 51.78125 Z m 34.519531,0 v 2.876953 H 46.027344 V 51.78125 Z m -20.628906,8.628906 -8.1367188,8.136719 2.0332032,2.035156 8.1367186,-8.136719 z m 18.349609,0 -2.035156,2.035156 8.136719,8.136719 2.035156,-2.035156 z m -10.664062,4.316406 v 11.50586 h 2.875 v -11.50586 z" />
</svg>
