<svg width="36" height="35" viewBox="0 0 36 35" fill="none" xmlns="http://www.w3.org/2000/svg">
    <path id="home"
        d="M 18.498047,1.5729166e-4 C 17.98876,-0.00391571 17.478778,0.07113619 16.986328,0.22281355 L 3.5273438,4.3673448 C 1.4300358,5.0132742 0,6.9501508 0,9.1446886 V 29.756017 c 0,2.761397 2.2385828,5 5,5 h 5.5 15 5.5 c 2.761397,0 5,-2.238603 5,-5 V 9.0841417 C 36,6.9191139 34.607526,5.0005048 32.548828,4.3302355 L 20.005859,0.24625105 C 19.51586,0.0867167 19.007334,0.00423029 18.498047,1.5729166e-4 Z M 13,21.756017 h 10 c 1.656898,0 3,1.343102 3,3 L 26.296875,32.679845 10,32.531408 v -7.775391 c 0,-1.656898 1.343102,-3 3,-3 z" 
        fill="black"/>
</svg>