<svg width="73" height="112" viewBox="0 0 73 112" fill="none" xmlns="http://www.w3.org/2000/svg">
 <path
     id="phone"
     fill="black"
     d="M 8,0 C 3.5680132,0 0,3.5680132 0,8 v 96 c 0,4.432 3.5680132,8 8,8 h 57 c 4.431988,0 8,-3.568 8,-8 V 8 C 73,3.5680132 69.431988,0 65,0 Z m 6,8 h 45 c 3.323994,0 6,2.676006 6,6 v 72 c 0,3.323994 -2.676006,6 -6,6 H 14 C 10.676006,92 8,89.323994 8,86 V 14 C 8,10.676006 10.676006,8 14,8 Z M 31.095703,24.001953 C 8.6297556,37.42154 24.433228,80.788783 58.246094,64.25 51.9893,64.6153 39.870004,56.513307 34.724609,50.632812 28.716815,42.601421 27.325507,32.046145 31.095703,24.001953 Z M 36.5,94 A 7.5,7.5 0 0 1 44,101.5 7.5,7.5 0 0 1 36.5,109 7.5,7.5 0 0 1 29,101.5 7.5,7.5 0 0 1 36.5,94 Z" />
</svg>
