<svg width="43" height="71" viewBox="0 0 43 71" fill="none" xmlns="http://www.w3.org/2000/svg">
  <path
     id="soda"
     fill="#4d4d4d"
     d="M 21.5,0 A 21.5,8.5 0 0 0 0.08203125,8 H 0 V 62 H 0.08203125 A 21.5,8.5 0 0 0 0,62.5 21.5,8.5 0 0 0 21.5,71 21.5,8.5 0 0 0 43,62.5 21.5,8.5 0 0 0 42.958984,62 H 43 V 8 H 42.95898 A 21.5,8.5 0 0 0 21.5,0 Z M 11.431641,4.2871094 A 3.0084741,1.1845874 0 0 1 14.441406,5.4707031 3.0084741,1.1845874 0 0 1 11.431641,6.65625 3.0084741,1.1845874 0 0 1 8.4238281,5.4707031 3.0084741,1.1845874 0 0 1 11.431641,4.2871094 Z" />
</svg>
