<svg width="40" height="41" viewBox="0 0 44.999996 44.026451" fill="none" xmlns="http://www.w3.org/2000/svg">
<path
       id="sun"
       fill="black"
       d="m 21.310169,0 v 11.358202 h 2.650156 V 0 Z m 15.208681,4.4381995 -7.161978,8.8155915 2.057032,1.67108 7.161976,-8.8155932 z M 7.9701908,5.2271905 6.0702051,7.0749119 13.989011,15.217475 15.888997,13.369754 Z M 22.600695,12.321072 a 9.7907115,9.4847524 0 0 0 -9.790648,9.484729 9.7907115,9.4847524 0 0 0 9.790648,9.484851 9.7907115,9.4847524 0 0 0 9.790778,-9.484851 9.7907115,9.4847524 0 0 0 -9.790778,-9.484729 z M 0,20.742169 v 2.650283 h 11.358203 v -2.650283 z m 33.641798,0.43269 v 2.65028 H 45 v -2.65028 z m -20.160983,7.837646 -7.8837534,8.176358 1.9077753,1.839555 7.8837541,-8.176485 z m 17.90884,0.661847 -1.899986,1.847721 7.918807,8.142564 1.899984,-1.847723 z M 21.283031,32.668245 V 44.02645 h 2.65028 V 32.668245 Z" />
</svg>
