<svg width="43" height="71" viewBox="0 0 43 71" fill="none" xmlns="http://www.w3.org/2000/svg">
  <path
     id="wine"
     fill="#666666"
     d="M 21.5 0 A 21.5 8.5 0 0 0 1.4023438 5.5195312 C 1.1965834 5.6658625 1.0159476 5.8855289 0.85351562 6.1582031 A 21.5 8.5 0 0 0 0 8.5 A 21.5 8.5 0 0 0 0.1015625 9.1113281 C 0.036752207 9.8078329 0 10.60249 0 11.525391 C 0 26.979104 9.2972732 39.547004 20.886719 39.978516 L 20.886719 62.001953 A 16 4.5 0 0 0 5 66.5 A 16 4.5 0 0 0 21 71 A 16 4.5 0 0 0 37 66.5 A 16 4.5 0 0 0 21.751953 62.005859 L 21.751953 39.992188 C 33.509299 39.812386 43 27.13976 43 11.525391 C 43 10.60249 42.963247 9.8078329 42.898438 9.1113281 A 21.5 8.5 0 0 0 43 8.5 A 21.5 8.5 0 0 0 42.085938 6.0527344 C 41.973128 5.8807348 41.853095 5.729981 41.720703 5.6152344 A 21.5 8.5 0 0 0 21.5 0 z M 21.460938 1.4882812 A 18.265951 4.9991851 0 0 1 39.726562 6.4882812 A 18.265951 4.9991851 0 0 1 21.460938 11.488281 A 18.265951 4.9991851 0 0 1 3.1933594 6.4882812 A 18.265951 4.9991851 0 0 1 21.460938 1.4882812 z " />
</svg>
